<svg xmlns="http://www.w3.org/2000/svg" viewBox="0 0 600 280" width="600" height="280">
  <defs>
    <linearGradient id="bg" x1="0%" y1="0%" x2="100%" y2="100%">
      <stop offset="0%"   stop-color="#030810"/>
      <stop offset="100%" stop-color="#050c18"/>
    </linearGradient>
    <filter id="glow" x="-20%" y="-20%" width="140%" height="140%">
      <feGaussianBlur stdDeviation="4" result="blur"/>
      <feMerge><feMergeNode in="blur"/><feMergeNode in="SourceGraphic"/></feMerge>
    </filter>
    <filter id="softglow" x="-30%" y="-30%" width="160%" height="160%">
      <feGaussianBlur stdDeviation="8" result="blur"/>
      <feMerge><feMergeNode in="blur"/><feMergeNode in="SourceGraphic"/></feMerge>
    </filter>
    <filter id="shadow">
      <feDropShadow dx="0" dy="2" stdDeviation="3" flood-color="rgba(0,0,0,0.6)"/>
    </filter>
  </defs>
<rect width="600" height="280" fill="url(#bg)"/>
  <circle cx="261" cy="183" r="1.5" fill="white" opacity="0.32"/>
  <circle cx="476" cy="127" r="0.5" fill="white" opacity="0.93"/>
  <circle cx="115" cy="190" r="1" fill="white" opacity="0.91"/>
  <circle cx="389" cy="278" r="0.5" fill="white" opacity="0.70"/>
  <circle cx="13" cy="110" r="1" fill="white" opacity="0.50"/>
  <circle cx="398" cy="81" r="0.5" fill="white" opacity="0.40"/>
  <circle cx="455" cy="64" r="0.5" fill="white" opacity="0.30"/>
  <circle cx="5" cy="107" r="0.5" fill="white" opacity="0.97"/>
  <circle cx="169" cy="85" r="1" fill="white" opacity="0.52"/>
  <circle cx="203" cy="276" r="0.5" fill="white" opacity="0.43"/>
  <circle cx="201" cy="196" r="1" fill="white" opacity="0.32"/>
  <circle cx="424" cy="84" r="0.5" fill="white" opacity="0.48"/>
  <circle cx="339" cy="154" r="1.5" fill="white" opacity="0.71"/>
  <circle cx="346" cy="33" r="1" fill="white" opacity="0.55"/>
  <circle cx="313" cy="246" r="1" fill="white" opacity="0.43"/>
  <circle cx="483" cy="90" r="0.5" fill="white" opacity="0.48"/>
  <circle cx="23" cy="183" r="1" fill="white" opacity="0.31"/>
  <circle cx="428" cy="187" r="1" fill="white" opacity="0.70"/>
  <circle cx="9" cy="231" r="0.5" fill="white" opacity="0.80"/>
  <circle cx="201" cy="60" r="0.5" fill="white" opacity="0.95"/>
  <circle cx="473" cy="176" r="1.5" fill="white" opacity="0.55"/>
  <circle cx="537" cy="128" r="1" fill="white" opacity="0.38"/>
  <circle cx="376" cy="151" r="0.5" fill="white" opacity="0.60"/>
  <circle cx="93" cy="106" r="1" fill="white" opacity="0.66"/>
  <circle cx="371" cy="75" r="1" fill="white" opacity="0.49"/>
  <circle cx="558" cy="47" r="1" fill="white" opacity="0.78"/>
  <circle cx="313" cy="90" r="0.5" fill="white" opacity="0.74"/>
  <circle cx="316" cy="247" r="0.5" fill="white" opacity="0.80"/>
  <circle cx="82" cy="273" r="1" fill="white" opacity="0.32"/>
  <circle cx="352" cy="128" r="1" fill="white" opacity="0.76"/>
  <circle cx="149" cy="28" r="0.5" fill="white" opacity="0.86"/>
  <circle cx="342" cy="106" r="0.5" fill="white" opacity="0.99"/>
  <circle cx="577" cy="67" r="1" fill="white" opacity="0.37"/>
  <circle cx="444" cy="190" r="0.5" fill="white" opacity="0.34"/>
  <circle cx="430" cy="150" r="0.5" fill="white" opacity="0.62"/>
  <circle cx="173" cy="267" r="1" fill="white" opacity="0.97"/>
  <circle cx="325" cy="245" r="1" fill="white" opacity="0.50"/>
  <circle cx="413" cy="75" r="0.5" fill="white" opacity="0.56"/>
  <circle cx="544" cy="91" r="1" fill="white" opacity="0.91"/>
  <circle cx="184" cy="45" r="1" fill="white" opacity="0.49"/>
  <circle cx="561" cy="257" r="1" fill="white" opacity="0.34"/>
  <circle cx="364" cy="17" r="1" fill="white" opacity="0.55"/>
  <circle cx="287" cy="248" r="1" fill="white" opacity="0.84"/>
  <circle cx="300" cy="174" r="0.5" fill="white" opacity="0.71"/>
  <circle cx="11" cy="242" r="1.5" fill="white" opacity="0.84"/>
  <circle cx="333" cy="140" r="1" fill="white" opacity="0.50"/>
  <circle cx="512" cy="182" r="1" fill="white" opacity="0.49"/>
  <circle cx="353" cy="209" r="1" fill="white" opacity="0.95"/>
  <circle cx="176" cy="230" r="1" fill="white" opacity="0.97"/>
  <circle cx="530" cy="72" r="1.5" fill="white" opacity="0.99"/>
  <circle cx="203" cy="185" r="1" fill="white" opacity="0.50"/>
  <circle cx="80" cy="213" r="0.5" fill="white" opacity="0.73"/>
  <circle cx="594" cy="264" r="1" fill="white" opacity="0.51"/>
  <circle cx="566" cy="138" r="0.5" fill="white" opacity="0.44"/>
  <circle cx="600" cy="225" r="1.5" fill="white" opacity="0.76"/>
  <circle cx="224" cy="92" r="0.5" fill="white" opacity="0.99"/>
  <circle cx="231" cy="84" r="0.5" fill="white" opacity="0.92"/>
  <circle cx="113" cy="162" r="0.5" fill="white" opacity="0.64"/>
  <circle cx="561" cy="18" r="1" fill="white" opacity="0.63"/>
  <circle cx="389" cy="36" r="1.5" fill="white" opacity="0.44"/>
    <g transform="translate(300,115) scale(1.1)" fill="#2060a0" opacity="0.85" filter="url(#glow)">
    <!-- body -->
    <ellipse cx="0" cy="0" rx="80" ry="35"/>
    <!-- neck -->
    <ellipse cx="-55" cy="-25" rx="30" ry="18" transform="rotate(-20 -55 -25)"/>
    <!-- head -->
    <ellipse cx="-90" cy="-48" rx="22" ry="14" transform="rotate(-30 -90 -48)"/>
    <!-- snout -->
    <ellipse cx="-108" cy="-52" rx="14" ry="7" transform="rotate(-15 -108 -52)"/>
    <!-- eye -->
    <circle cx="-95" cy="-53" r="3" fill="gold" opacity="0.9"/>
    <!-- tail -->
    <path d="M70,10 Q120,30 150,15 Q170,5 160,-10 Q145,-20 130,0 Q115,15 90,5 Z"/>
    <!-- left wing -->
    <path d="M-20,-20 Q-80,-90 -120,-100 Q-60,-60 -10,-10 Z"/>
    <path d="M10,-30 Q-20,-110 -50,-140 Q-20,-90 20,-25 Z"/>
    <!-- right wing -->
    <path d="M20,-20 Q80,-90 110,-95 Q55,-55 15,-10 Z"/>
    <path d="M30,-28 Q70,-110 100,-130 Q60,-85 25,-22 Z"/>
    <!-- legs -->
    <path d="M-20,25 Q-25,55 -35,70 L-30,72 Q-20,60 -15,27 Z"/>
    <path d="M20,28 Q22,58 15,73 L20,73 Q28,60 25,27 Z"/>
    <!-- claws left -->
    <path d="M-35,70 L-42,80 M-35,70 L-38,82 M-35,70 L-28,80"/>
    <!-- claws right -->
    <path d="M15,73 L8,83 M15,73 L14,85 M15,73 L22,82"/>
  </g>
  <!-- crystal aura -->
  <radialGradient id="crystalaura" cx="50%" cy="42%" r="50%">
    <stop offset="0%" stop-color="#60b0e0" stop-opacity="0.4"/>
    <stop offset="100%" stop-color="transparent"/>
  </radialGradient>
  <rect width="600" height="280" fill="url(#crystalaura)"/>
  <!-- Veeshan's scar lines -->
  <g stroke="#5090c0" stroke-width="5" stroke-linecap="round" opacity="0.3">
    <line x1="50" y1="200" x2="550" y2="210"/>
    <line x1="50" y1="215" x2="550" y2="225"/>
    <line x1="50" y1="230" x2="550" y2="238"/>
  </g>
  <rect x="6" y="6" width="588" height="268" fill="none" stroke="#90d8ff" stroke-width="1" stroke-opacity="0.45" rx="6"/>
  <rect x="10" y="10" width="580" height="260" fill="none" stroke="#90d8ff" stroke-width="0.5" stroke-opacity="0.23" rx="4"/>
  <g stroke="#90d8ff" stroke-width="1.8" fill="none" stroke-opacity="0.7">
    <path d="M22,22 L22,40 M22,22 L40,22"/>
    <path d="M578,22 L578,40 M578,22 L560,22"/>
    <path d="M22,258 L22,240 M22,258 L40,258"/>
    <path d="M578,258 L578,240 M578,258 L560,258"/>
  </g>
  <line x1="80" y1="226" x2="520" y2="226" stroke="#90d8ff" stroke-width="0.6" stroke-opacity="0.4"/>
  <text x="300" y="240" font-family="Georgia,serif" font-size="20" font-weight="bold"
        fill="#90d8ff" text-anchor="middle" filter="url(#glow)">Veeshan</text>
  <text x="300" y="260" font-family="Georgia,serif" font-size="12"
        fill="#90d8ff" text-anchor="middle" opacity="0.65">The Crystalline Dragon · Goddess of Dragonkind</text>

</svg>
