<svg xmlns="http://www.w3.org/2000/svg" viewBox="0 0 600 280" width="600" height="280">
  <defs>
    <linearGradient id="bg" x1="0%" y1="0%" x2="100%" y2="100%">
      <stop offset="0%"   stop-color="#0a0a0a"/>
      <stop offset="100%" stop-color="#141414"/>
    </linearGradient>
    <filter id="glow" x="-20%" y="-20%" width="140%" height="140%">
      <feGaussianBlur stdDeviation="4" result="blur"/>
      <feMerge><feMergeNode in="blur"/><feMergeNode in="SourceGraphic"/></feMerge>
    </filter>
    <filter id="softglow" x="-30%" y="-30%" width="160%" height="160%">
      <feGaussianBlur stdDeviation="8" result="blur"/>
      <feMerge><feMergeNode in="blur"/><feMergeNode in="SourceGraphic"/></feMerge>
    </filter>
    <filter id="shadow">
      <feDropShadow dx="0" dy="2" stdDeviation="3" flood-color="rgba(0,0,0,0.6)"/>
    </filter>
  </defs>
<rect width="600" height="280" fill="url(#bg)"/>
  <!-- scales of justice -->
  <g transform="translate(300,130)" stroke="#c0c0c0" stroke-width="3" fill="none" opacity="0.75">
    <!-- central pole -->
    <line x1="0" y1="-90" x2="0" y2="50"/>
    <!-- balance beam -->
    <line x1="-120" y1="-40" x2="120" y2="-40"/>
    <!-- chains -->
    <line x1="-120" y1="-40" x2="-120" y2="10" stroke-dasharray="6 3"/>
    <line x1="120"  y1="-40" x2="120"  y2="10" stroke-dasharray="6 3"/>
    <!-- scale pans -->
    <path d="M-145,10 Q-120,25 -95,10 Z" fill="#909090" stroke="none" opacity="0.7"/>
    <path d="M95,10   Q120,25  145,10  Z" fill="#909090" stroke="none" opacity="0.7"/>
    <!-- top ornament -->
    <circle cx="0" cy="-92" r="12" fill="#b0b0b0" stroke="none" opacity="0.7"/>
    <!-- six rune marks -->
    <g fill="#c0c0c0" stroke="none" opacity="0.5">
      <circle cx="-90" cy="-70" r="5"/>
      <circle cx="-45" cy="-70" r="5"/>
      <circle cx="0"   cy="-70" r="5"/>
      <circle cx="45"  cy="-70" r="5"/>
      <circle cx="90"  cy="-70" r="5"/>
      <circle cx="0"   cy="-55" r="5"/>
    </g>
  </g>
    <circle cx="300" cy="130" r="80" fill="none" stroke="#808080" stroke-width="2.5" opacity="0.7"/>
  <circle cx="300" cy="130" r="88" fill="none" stroke="#808080" stroke-width="1" opacity="0.3"/>
  <circle cx="300" cy="130" r="55" fill="none" stroke="#808080" stroke-width="1.5" opacity="0.5" stroke-dasharray="6 4"/>
  <line x1="380.0" y1="130.0" x2="365.0" y2="130.0" stroke="#808080" stroke-width="2" opacity="0.7"/>  <line x1="369.3" y1="170.0" x2="356.3" y2="162.5" stroke="#808080" stroke-width="2" opacity="0.7"/>  <line x1="340.0" y1="199.3" x2="332.5" y2="186.3" stroke="#808080" stroke-width="2" opacity="0.7"/>  <line x1="300.0" y1="210.0" x2="300.0" y2="195.0" stroke="#808080" stroke-width="2" opacity="0.7"/>  <line x1="260.0" y1="199.3" x2="267.5" y2="186.3" stroke="#808080" stroke-width="2" opacity="0.7"/>  <line x1="230.7" y1="170.0" x2="243.7" y2="162.5" stroke="#808080" stroke-width="2" opacity="0.7"/>  <line x1="220.0" y1="130.0" x2="235.0" y2="130.0" stroke="#808080" stroke-width="2" opacity="0.7"/>  <line x1="230.7" y1="90.0" x2="243.7" y2="97.5" stroke="#808080" stroke-width="2" opacity="0.7"/>  <line x1="260.0" y1="60.7" x2="267.5" y2="73.7" stroke="#808080" stroke-width="2" opacity="0.7"/>  <line x1="300.0" y1="50.0" x2="300.0" y2="65.0" stroke="#808080" stroke-width="2" opacity="0.7"/>  <line x1="340.0" y1="60.7" x2="332.5" y2="73.7" stroke="#808080" stroke-width="2" opacity="0.7"/>  <line x1="369.3" y1="90.0" x2="356.3" y2="97.5" stroke="#808080" stroke-width="2" opacity="0.7"/>
  <line x1="360.0" y1="130.0" x2="240.0" y2="130.0" stroke="#808080" stroke-width="1" opacity="0.4"/>  <line x1="330.0" y1="182.0" x2="270.0" y2="78.0" stroke="#808080" stroke-width="1" opacity="0.4"/>  <line x1="270.0" y1="182.0" x2="330.0" y2="78.0" stroke="#808080" stroke-width="1" opacity="0.4"/>  <line x1="240.0" y1="130.0" x2="360.0" y2="130.0" stroke="#808080" stroke-width="1" opacity="0.4"/>  <line x1="270.0" y1="78.0" x2="330.0" y2="182.0" stroke="#808080" stroke-width="1" opacity="0.4"/>  <line x1="330.0" y1="78.0" x2="270.0" y2="182.0" stroke="#808080" stroke-width="1" opacity="0.4"/>
  <rect x="6" y="6" width="588" height="268" fill="none" stroke="#b0b0b0" stroke-width="1" stroke-opacity="0.45" rx="6"/>
  <rect x="10" y="10" width="580" height="260" fill="none" stroke="#b0b0b0" stroke-width="0.5" stroke-opacity="0.23" rx="4"/>
  <g stroke="#b0b0b0" stroke-width="1.8" fill="none" stroke-opacity="0.7">
    <path d="M22,22 L22,40 M22,22 L40,22"/>
    <path d="M578,22 L578,40 M578,22 L560,22"/>
    <path d="M22,258 L22,240 M22,258 L40,258"/>
    <path d="M578,258 L578,240 M578,258 L560,258"/>
  </g>
  <line x1="80" y1="226" x2="520" y2="226" stroke="#b0b0b0" stroke-width="0.6" stroke-opacity="0.4"/>
  <text x="300" y="240" font-family="Georgia,serif" font-size="20" font-weight="bold"
        fill="#b0b0b0" text-anchor="middle" filter="url(#glow)">The Tribunal</text>
  <text x="300" y="260" font-family="Georgia,serif" font-size="12"
        fill="#b0b0b0" text-anchor="middle" opacity="0.65">The Six Hammers · Plane of Justice</text>

</svg>
