<svg xmlns="http://www.w3.org/2000/svg" viewBox="0 0 600 280" width="600" height="280">
  <defs>
    <linearGradient id="bg" x1="0%" y1="0%" x2="100%" y2="100%">
      <stop offset="0%"   stop-color="#050510"/>
      <stop offset="100%" stop-color="#080818"/>
    </linearGradient>
    <filter id="glow" x="-20%" y="-20%" width="140%" height="140%">
      <feGaussianBlur stdDeviation="4" result="blur"/>
      <feMerge><feMergeNode in="blur"/><feMergeNode in="SourceGraphic"/></feMerge>
    </filter>
    <filter id="softglow" x="-30%" y="-30%" width="160%" height="160%">
      <feGaussianBlur stdDeviation="8" result="blur"/>
      <feMerge><feMergeNode in="blur"/><feMergeNode in="SourceGraphic"/></feMerge>
    </filter>
    <filter id="shadow">
      <feDropShadow dx="0" dy="2" stdDeviation="3" flood-color="rgba(0,0,0,0.6)"/>
    </filter>
  </defs>
<rect width="600" height="280" fill="url(#bg)"/>
  <!-- moon surface craters -->
  <g fill="#1a1830" opacity="0.5">
    <circle cx="120" cy="200" r="40"/>
    <circle cx="420" cy="210" r="35"/>
    <circle cx="280" cy="220" r="25"/>
    <circle cx="520" cy="190" r="28"/>
  </g>
  <!-- crescent moon in sky -->
  <circle cx="460" cy="60" r="50" fill="#e0d080" opacity="0.3"/>
  <circle cx="480" cy="52" r="44" fill="#050510" opacity="0.95"/>
  <!-- stars -->
  <g opacity="0.9">
  <circle cx="331" cy="77" r="1" fill="white" opacity="0.76"/>
  <circle cx="74" cy="274" r="0.5" fill="white" opacity="0.56"/>
  <circle cx="59" cy="259" r="0.5" fill="white" opacity="0.33"/>
  <circle cx="444" cy="214" r="0.5" fill="white" opacity="0.47"/>
  <circle cx="564" cy="217" r="0.5" fill="white" opacity="0.88"/>
  <circle cx="126" cy="114" r="1.5" fill="white" opacity="0.96"/>
  <circle cx="590" cy="203" r="0.5" fill="white" opacity="0.98"/>
  <circle cx="47" cy="68" r="1" fill="white" opacity="0.59"/>
  <circle cx="553" cy="60" r="1.5" fill="white" opacity="0.52"/>
  <circle cx="185" cy="52" r="1.5" fill="white" opacity="0.70"/>
  <circle cx="192" cy="190" r="0.5" fill="white" opacity="0.68"/>
  <circle cx="64" cy="30" r="1.5" fill="white" opacity="0.44"/>
  <circle cx="544" cy="218" r="1" fill="white" opacity="0.63"/>
  <circle cx="464" cy="185" r="1" fill="white" opacity="0.47"/>
  <circle cx="184" cy="124" r="0.5" fill="white" opacity="0.70"/>
  <circle cx="537" cy="253" r="1" fill="white" opacity="0.81"/>
  <circle cx="294" cy="37" r="0.5" fill="white" opacity="0.66"/>
  <circle cx="168" cy="175" r="0.5" fill="white" opacity="0.95"/>
  <circle cx="431" cy="20" r="0.5" fill="white" opacity="0.84"/>
  <circle cx="586" cy="160" r="1" fill="white" opacity="0.79"/>
  <circle cx="508" cy="233" r="0.5" fill="white" opacity="0.89"/>
  <circle cx="276" cy="242" r="0.5" fill="white" opacity="0.34"/>
  <circle cx="317" cy="228" r="1" fill="white" opacity="0.80"/>
  <circle cx="355" cy="11" r="1" fill="white" opacity="0.55"/>
  <circle cx="119" cy="252" r="0.5" fill="white" opacity="0.45"/>
  <circle cx="294" cy="66" r="0.5" fill="white" opacity="0.58"/>
  <circle cx="508" cy="41" r="0.5" fill="white" opacity="0.61"/>
  <circle cx="562" cy="142" r="0.5" fill="white" opacity="0.87"/>
  <circle cx="563" cy="142" r="1" fill="white" opacity="0.99"/>
  <circle cx="389" cy="118" r="0.5" fill="white" opacity="0.36"/>
  <circle cx="154" cy="118" r="0.5" fill="white" opacity="0.31"/>
  <circle cx="186" cy="134" r="1" fill="white" opacity="0.30"/>
  <circle cx="429" cy="273" r="1" fill="white" opacity="0.73"/>
  <circle cx="326" cy="64" r="1.5" fill="white" opacity="0.97"/>
  <circle cx="55" cy="233" r="1.5" fill="white" opacity="0.57"/>
  <circle cx="408" cy="201" r="0.5" fill="white" opacity="0.64"/>
  <circle cx="410" cy="31" r="0.5" fill="white" opacity="0.35"/>
  <circle cx="213" cy="225" r="0.5" fill="white" opacity="0.38"/>
  <circle cx="53" cy="52" r="0.5" fill="white" opacity="0.70"/>
  <circle cx="549" cy="51" r="1" fill="white" opacity="0.73"/>
  <circle cx="72" cy="106" r="1.5" fill="white" opacity="0.56"/>
  <circle cx="258" cy="177" r="1.5" fill="white" opacity="0.55"/>
  <circle cx="125" cy="59" r="1" fill="white" opacity="1.00"/>
  <circle cx="477" cy="245" r="1" fill="white" opacity="0.52"/>
  <circle cx="147" cy="52" r="1" fill="white" opacity="0.82"/>
  <circle cx="490" cy="82" r="1.5" fill="white" opacity="0.32"/>
  <circle cx="540" cy="185" r="0.5" fill="white" opacity="0.78"/>
  <circle cx="27" cy="270" r="1" fill="white" opacity="0.98"/>
  <circle cx="93" cy="133" r="1.5" fill="white" opacity="0.56"/>
  <circle cx="171" cy="182" r="0.5" fill="white" opacity="0.67"/>
  <circle cx="514" cy="168" r="0.5" fill="white" opacity="0.73"/>
  <circle cx="199" cy="122" r="1" fill="white" opacity="0.82"/>
  <circle cx="232" cy="102" r="1.5" fill="white" opacity="0.64"/>
  <circle cx="29" cy="14" r="1" fill="white" opacity="0.63"/>
  <circle cx="198" cy="176" r="1" fill="white" opacity="0.87"/>
  <circle cx="357" cy="186" r="0.5" fill="white" opacity="0.45"/>
  <circle cx="232" cy="240" r="0.5" fill="white" opacity="0.54"/>
  <circle cx="494" cy="0" r="1" fill="white" opacity="0.94"/>
  <circle cx="352" cy="43" r="0.5" fill="white" opacity="0.94"/>
  <circle cx="204" cy="244" r="0.5" fill="white" opacity="0.60"/>
  <circle cx="340" cy="44" r="1" fill="white" opacity="0.62"/>
  <circle cx="86" cy="81" r="0.5" fill="white" opacity="1.00"/>
  <circle cx="28" cy="77" r="1.5" fill="white" opacity="0.93"/>
  <circle cx="149" cy="242" r="1" fill="white" opacity="0.41"/>
  <circle cx="561" cy="67" r="0.5" fill="white" opacity="0.31"/>
  <circle cx="105" cy="269" r="0.5" fill="white" opacity="0.60"/>
  <circle cx="199" cy="108" r="0.5" fill="white" opacity="0.48"/>
  <circle cx="299" cy="256" r="0.5" fill="white" opacity="0.83"/>
  <circle cx="333" cy="132" r="1.5" fill="white" opacity="0.59"/>
  <circle cx="134" cy="31" r="1" fill="white" opacity="0.93"/>
  </g>
  <!-- cat-like silhouette -->
  <g transform="translate(300,150)" fill="#2a2840" opacity="0.6">
    <ellipse cx="0" cy="0" rx="30" ry="35"/>
    <!-- ears -->
    <polygon points="-15,-35 -25,-60 -5,-35"/>
    <polygon points="15,-35 25,-60 5,-35"/>
    <!-- tail -->
    <path d="M25,20 Q70,0 80,30 Q90,50 70,55" stroke="#2a2840" stroke-width="12" fill="none"/>
  </g>
  <rect x="6" y="6" width="588" height="268" fill="none" stroke="#e0c080" stroke-width="1" stroke-opacity="0.45" rx="6"/>
  <rect x="10" y="10" width="580" height="260" fill="none" stroke="#e0c080" stroke-width="0.5" stroke-opacity="0.23" rx="4"/>
  <g stroke="#e0c080" stroke-width="1.8" fill="none" stroke-opacity="0.7">
    <path d="M22,22 L22,40 M22,22 L40,22"/>
    <path d="M578,22 L578,40 M578,22 L560,22"/>
    <path d="M22,258 L22,240 M22,258 L40,258"/>
    <path d="M578,258 L578,240 M578,258 L560,258"/>
  </g>
  <line x1="80" y1="226" x2="520" y2="226" stroke="#e0c080" stroke-width="0.6" stroke-opacity="0.4"/>
  <text x="300" y="240" font-family="Georgia,serif" font-size="20" font-weight="bold"
        fill="#e0c080" text-anchor="middle" filter="url(#glow)">Vah Shir</text>
  <text x="300" y="260" font-family="Georgia,serif" font-size="12"
        fill="#e0c080" text-anchor="middle" opacity="0.65">Shar Vahl · The Moon of Luclin</text>

</svg>
